<svg xmlns="http://www.w3.org/2000/svg" viewBox="0 0 500 500"><defs><style>.cls-1{fill:#cbe3e8;}.cls-2,.cls-3{fill:none;}.cls-2,.cls-3,.cls-4{stroke:#51a2b3;stroke-linecap:round;stroke-linejoin:round;}.cls-2{stroke-width:5px;}.cls-3{stroke-width:4px;}.cls-4{fill:#51a2b3;stroke-width:0.5px;}</style></defs><g id="Instalaciones_transporte_y_logística_antártica" data-name="Instalaciones, transporte y logística antártica"><circle class="cls-1" cx="250" cy="252" r="225" transform="translate(-104.97 250.59) rotate(-45)"/><path class="cls-2" d="M406.5,258.91h40a17.68,17.68,0,0,1-5,15.59c-7,7-69,29-69,29s-1,7-5,9S66,312,66,312V286.7L50,278v-8l-.5-10.5,40-.59H369.26"/><polyline class="cls-2" points="293.44 202.5 289.5 202.5 275.5 214.5 275.5 258.91"/><polyline class="cls-2" points="355.5 258.5 355.5 202.5 305.56 202.5"/><line class="cls-2" x1="219.48" y1="219.5" x2="159.5" y2="219.5"/><polyline class="cls-2" points="259.5 246.5 259.5 219.5 244.52 219.5"/><line class="cls-2" x1="259.5" y1="258.5" x2="259.5" y2="247.55"/><polyline class="cls-2" points="219.48 219.5 219.48 196.5 242.5 196.5 242.5 219.5"/><line class="cls-2" x1="188.61" y1="219.5" x2="188.5" y2="144.5"/><line class="cls-2" x1="159.5" y1="258.5" x2="159.32" y2="219.5"/><line class="cls-3" x1="50" y1="278" x2="436.46" y2="278"/><line class="cls-2" x1="169.5" y1="218.5" x2="189.5" y2="166.5"/><line class="cls-2" x1="296.5" y1="177.5" x2="189.34" y2="166.96"/><line class="cls-2" x1="303.5" y1="183.5" x2="355.5" y2="187.7"/><polyline class="cls-2" points="293.44 202.5 297.5 174.5 302.5 174.5 304 202.5"/><rect class="cls-4" x="295.92" y="215" width="8.09" height="8.09"/><rect class="cls-4" x="325.62" y="215" width="8.09" height="8.09"/><rect class="cls-4" x="295.92" y="238.91" width="8.09" height="8.09"/><rect class="cls-4" x="325.62" y="238.91" width="8.09" height="8.09"/><polyline class="cls-2" points="370.5 258.5 370.5 250.5 406.5 245.5 406.5 251.5 406.5 256.5"/><line class="cls-2" x1="355.5" y1="202.5" x2="355.5" y2="182.61"/><polyline class="cls-2" points="365.5 312.5 409.5 305.5 418.5 317.5 443.5 306.5"/><polyline class="cls-2" points="397.26 308.22 406.5 335.5 389.5 345.5 408.5 371.87"/><polyline class="cls-2" points="335.7 313.21 324.5 327 349.5 345.78 330.5 368.22"/></g></svg>