<svg xmlns="http://www.w3.org/2000/svg" viewBox="0 0 500 500"><defs><style>.cls-1{fill:#cbe3e8;}.cls-2{fill:none;stroke:#51a2b3;stroke-linecap:round;stroke-linejoin:round;stroke-width:5px;}</style></defs><g id="Oceanografía"><circle class="cls-1" cx="258" cy="253" r="225" transform="translate(-103.33 256.54) rotate(-45)"/><path class="cls-2" d="M93.72,321.49c16.22-21.64,76.37-123.86,129.23-161.6,28.72-20.5,71.85-32.51,71.82-8.95,17-13,87.74,8.74,58.07,39.08,56.82-16.42,83.23,35.2,65.24,39.85,8.13,18,4.95,23.69-1.57,34.42-23.26,38.28-104.12,19-72.37-33.64,23.22-38.53,73.71-5.08,54,20.9-8.11,10.67-34,5.33-25.43-10.39"/><path class="cls-2" d="M122.37,344.62c8.68-17.07,28.58-56.93,47.79-44.62,13.59,8.7-8.25,18.7-8.25,18.7s22.42,11.65,32.47-12.74c4.82-11.72-10.72-34.74-28.07-27.64-.53-15.57,17.71-42,32.44-43.27,10.23-.9,18.25,3.14,11.58,14.45,39.89.91,22.94-54.41-7.08-40.91,8.25-18.7,32.4-39.76,52.36-45.36"/><path class="cls-2" d="M219,204.9c8.28-15.22,28.86-29.63,47.67-34.49,11.45-3,23.66,14,8.27,16.54-3.33,12.71,19.79,18.82,25-2.46,3-12.11-6-26-23.85-26"/><path class="cls-2" d="M300.27,172.2c10.36-10.53,28.06-7.43,32.81,5.48,2.93,8-6.06,10.29-13,10.34,5.86,13.19,36.64-3.35,23.66-13.09"/><path class="cls-2" d="M339.53,240c-29.81,16.14-37,69.45,10.25,110.46"/><path class="cls-2" d="M312.49,243.18c-6.25,12.95-15.66,40.68-.06,70.67"/><path class="cls-2" d="M318.65,324.45c3.54,6.94,10.35,13,10.35,13"/><path class="cls-2" d="M286,208.16c-16.23,11.45-34.26,46.35-25.44,73.73"/><path class="cls-2" d="M220.44,258.71C205.7,281.08,200.55,335,225.57,367"/></g></svg>