<svg xmlns="http://www.w3.org/2000/svg" viewBox="0 0 500 500"><defs><style>.cls-1{fill:#cbe3e8;}.cls-2{fill:none;stroke:#51a2b3;stroke-linecap:round;stroke-linejoin:round;stroke-width:5px;}</style></defs><g id="Atmósfera_y_clima" data-name="Atmósfera y clima"><circle class="cls-1" cx="248" cy="252" r="225" transform="translate(-105.55 249.17) rotate(-45)"/><path class="cls-2" d="M176.27,179.22c-19.44-3.32-48.94,14-47.29,34.62.73,9.11,5.8,26.63,27.08,26.63H332.64s25.55,2.55,25.55-17.87c0-23-31.76-23-31.76-23s2.89-45.93-46.2-33.17c-2.89-17.87-12-47-57.76-45.94C168.43,119.51,169.59,168.72,176.27,179.22Z"/><circle class="cls-2" cx="210.88" cy="271.87" r="11.49"/><circle class="cls-2" cx="235.28" cy="330.2" r="11.49"/><circle class="cls-2" cx="331.51" cy="294.85" r="11.49"/><line class="cls-2" x1="280.75" y1="258.29" x2="280.75" y2="294.35"/><line class="cls-2" x1="296.79" y1="268.11" x2="264.7" y2="284.53"/><line class="cls-2" x1="296.17" y1="285.65" x2="265.32" y2="266.99"/><line class="cls-2" x1="164.05" y1="283.78" x2="164.05" y2="319.84"/><line class="cls-2" x1="180.1" y1="293.6" x2="148" y2="310.02"/><line class="cls-2" x1="179.47" y1="311.14" x2="148.62" y2="292.48"/><path class="cls-2" d="M358.19,220h9.26S393,222.51,393,202.1c0-23-31.76-23-31.76-23s1-44.24-46.21-33.17c-2.88-17.86-12-47-57.75-45.93-23.64-.45-36.72,8.72-43.39,20"/><circle class="cls-2" cx="167.3" cy="360.15" r="11.49"/><circle class="cls-2" cx="251.14" cy="416.95" r="11.49"/><circle class="cls-2" cx="363.15" cy="361.16" r="11.49"/><line class="cls-2" x1="299.38" y1="348.51" x2="299.38" y2="384.57"/><line class="cls-2" x1="315.42" y1="358.32" x2="283.33" y2="374.75"/><line class="cls-2" x1="314.8" y1="375.87" x2="283.95" y2="357.2"/><line class="cls-2" x1="199.68" y1="397" x2="199.68" y2="433.06"/><line class="cls-2" x1="215.73" y1="406.81" x2="183.63" y2="423.24"/><line class="cls-2" x1="215.1" y1="424.36" x2="184.25" y2="405.69"/></g></svg>