<svg xmlns="http://www.w3.org/2000/svg" viewBox="0 0 500 500"><defs><style>.cls-1{fill:#cbe3e8;}.cls-2{fill:none;stroke:#51a2b3;stroke-linecap:round;stroke-linejoin:round;stroke-width:5px;}</style></defs><g id="Historia_antártica_argentina" data-name="Historia antártica argentina"><circle class="cls-1" cx="250" cy="252" r="225" transform="translate(-104.97 250.59) rotate(-45)"/><path class="cls-2" d="M114.76,227.82c-2.28-12.52,10.25-17.07,14.8-2.28,6.25,20.33-18.21,28.46-23.91,6.83-8-28.45,23.91-38.7,31.88-11.38s34.15,127.49,41,154.81c8,29.6,36.42,21.63,31.6,0-6.56-27.32-27.05-18.21-21.36,2.28,3.41,10.24,13.75,9.42,9.75-7.58"/><path class="cls-2" d="M274.68,262.57c8.85,36,17.65,72.25,17.65,72.25"/><path class="cls-2" d="M114.76,206.19,237.7,180s12.14-1.87,17.81,8.78"/><path class="cls-2" d="M194.85,359.07l113.34-24.72c4.84-.84,10.83,3.76,13.79,16.44,2.14,9.84-2.64,16.77-9.1,18.39L199.4,395"/><line class="cls-2" x1="122.26" y1="245.13" x2="143.03" y2="240.7"/><line class="cls-2" x1="118.18" y1="216.44" x2="132.65" y2="213.09"/><path class="cls-2" d="M227.45,310.92S281,181.15,306,159.52"/><path class="cls-2" d="M242.25,273.35c-9.11-9.1-12.52-30.73-6.83-47.81S266.15,172,266.15,172L273,190.26l-2.27-27.32s19-19.74,25-25C314,122,331,114,354.94,110.58c22.79-3.26,39.84,6.83,41,14.79s-10.24,10.25-11.38,1.14"/><path class="cls-2" d="M243.49,273.35c7.87,0,26.08,2.28,40.88-29.59a145,145,0,0,0-14.8-4.56l18.21-2.27,12.52-26.18-21.62,1.13,26.18-9.1s19-47.49,37.56-66c11.38-11.39,26.77-24.06,46.4-19.43"/><line class="cls-2" x1="252.17" y1="193.61" x2="260.46" y2="214.16"/><line class="cls-2" x1="245.99" y1="205.82" x2="251.36" y2="217.58"/><line class="cls-2" x1="295.75" y1="186.84" x2="316.15" y2="179.99"/><line class="cls-2" x1="302.58" y1="175.46" x2="319.78" y2="170.32"/><line class="cls-2" x1="163.29" y1="239.23" x2="193.02" y2="232.9"/><polyline class="cls-2" points="166.7 252.89 196.44 246.56 232.07 238.97"/><polyline class="cls-2" points="180.36 302.97 210.09 296.64 256.19 286.82"/><polyline class="cls-2" points="185.7 321.86 193.3 313.19 206.96 320.02 213.79 310.92 226.31 312.06"/><line class="cls-2" x1="198.33" y1="370.87" x2="207.82" y2="368.67"/><line class="cls-2" x1="197.24" y1="384.03" x2="210.5" y2="381.5"/><line class="cls-2" x1="280.7" y1="368.19" x2="310.43" y2="361.86"/><line class="cls-2" x1="263.64" y1="371.51" x2="271.43" y2="369.86"/></g></svg>