<svg xmlns="http://www.w3.org/2000/svg" viewBox="0 0 500 500"><defs><style>.cls-1{fill:#cbe3e8;}.cls-2{fill:none;stroke:#51a2b3;stroke-linecap:round;stroke-linejoin:round;stroke-width:5px;}</style></defs><g id="Geología"><circle class="cls-1" cx="248" cy="252" r="225" transform="translate(-105.55 249.17) rotate(-45)"/><path class="cls-2" d="M207.5,327.5c-14,2-41,5-50,5s-42-3-47-3-13-16-12-20,10-17,9-25-18-26-18-33,18-23,22-32,21-47,24-52,18-4,21-5,4-9,10-11,11,3,15,3,73-28,79-25,15,31,19,35,38,22,42,26,25,49,25,58"/><path class="cls-2" d="M218.5,321.5c-12-21-52-19-64-18s-23-9-26-9"/><path class="cls-2" d="M282.5,273.5c-7,0-47.48-3-53.24-2.5s-38.76-4.5-38.76-4.5l-75-14"/><path class="cls-2" d="M245.5,258.5c10,0,57-11,61-18s15-50,15-50"/><path class="cls-2" d="M135.5,167.5c17,3,57.41,13,59,21s16,31,18,40"/><path class="cls-2" d="M268.65,142c-3.15,17.5-6.15,41.5-19.15,45.5s-36,4-36,4"/><path class="cls-2" d="M249.5,342.5c4,4,79,16,98,10s36-12,45-14,35-6,35-26c0-13.94-10.68-19.13-19.53-21.34-3.85-1-8.26.11-9.47-1.66-11-16-12.34-35.89-37-40-24-4-51,11.69-68,19-20.82,8.95-31.25,14.35-34,16-5,3-15,0-19,4s-7,25-7,25"/><path class="cls-2" d="M407.5,291.5c-16,6-30,14-45,16s-39,13-57,12a285,285,0,0,1-37-5"/><path class="cls-2" d="M250,327c11.57,5,24.14,11.32,28.62,10.41s16.16-2.72,16.16-2.72-12.57,2.72,5.38,6.36,29.34-.55,29.34-.55"/></g><g id="Política_y_soberanía" data-name="Política y soberanía"><path class="cls-2" d="M224.5,344.5c-4-5-14-21-26-25,7.67-1.54,23.91,2.24,31,12-.77-4.43.78-19.27-1-23s10,16.11,10,17,10.65-20.22,23-22c-11.76,14.25-15.18,30.76-14,37"/><path class="cls-2" d="M82.5,328.5c-10-16-7-20-28-34,10,2,14,1,23,11,14.45,16.06-13-15-8-36,9,17,14,22,20,33s-5.9-8.86,6-22c1,15,3.1,15.14,5,20"/><path class="cls-2" d="M108.78,329.5a46.92,46.92,0,0,0-20.28,1c-8,2-24.33,0-24.33,0"/><path class="cls-2" d="M254.5,344.5s-9-2-16-1-18,4-29,3-26.37-3.2-26.37-3.2"/></g></svg>