<svg xmlns="http://www.w3.org/2000/svg" viewBox="0 0 500 500"><defs><style>.cls-1{fill:#cbe3e8;}.cls-2{fill:none;stroke:#51a2b3;stroke-linecap:round;stroke-linejoin:round;stroke-width:5px;}</style></defs><g id="Ambiente_y_conservación" data-name="Ambiente y conservación"><circle class="cls-1" cx="253" cy="255" r="225" transform="translate(-106.21 253.59) rotate(-45)"/><path class="cls-2" d="M177.21,427.57V406.28L125.37,346.1s-10.19-20.37-7.41-35.18,14-70.36,14-70.36,4.93-8.79,12.34,1.39c4.9,6.74,4.62,61.1,4.62,61.1l30.56,39.81s20.36,11.11,17.59-3.7-26.89-37-15.74-48.14c10.18-10.19,30.55,29.62,34.25,33.32s35.18,17.59,26.85,59.25l-1.07,47.68"/><path class="cls-2" d="M260.25,431.27,265.62,378s-10.2-19.42,23.15-56.47c16.66-18.52,22.05-44.93,33.32-37,18.52,13-19.71,55.09-10.18,60.17C325.8,352.12,356.35,304,356.35,304s0-52.77,3.7-61.1,13-.93,13-.93,13,59.25,13.89,66.66-4.63,37.95-11.11,42.58-46.29,42.59-46.29,42.59L327.65,429"/><path class="cls-2" d="M248.6,163.13C245.85,140.74,251,135,253,121.5c1-7,.15-19.07-4.05-30.66C243.16,74.93,231.12,60,209.15,60.5c0,42.58,14.81,69.43,40.73,72.21"/><path class="cls-2" d="M251.27,133.94c53.23-8,50.46-68.81,50.46-68.81s-38,3.7-50,26.85"/><path class="cls-2" d="M264.59,374.61a111.16,111.16,0,0,1-14.09.89c-2.22,0-4.43-.07-6.62-.19"/><path class="cls-2" d="M142.32,239.55a111,111,0,0,1,216.92,2.58"/><path class="cls-2" d="M211.5,315.5c10.76-1.17,15.25-1.49,15.87-6.49s-10.79-14.24-11.08-22.13-10.94-3.27-14.12-12.58-6.81-13.74-3.49-19,9.86-6.62,11.59-11.95S201,235,205,230s12-3,15-5,6.83-6.8,6.83-6.8a16.11,16.11,0,0,1-2.61-9.37c.28-5.33,3.08-6.5,3.18-9.92s10.94-20.7,13.52-18.56-4.42,10.15-4.42,17.15,1,16,2,17-3,9,9,15,25-4,25-4c11-2.15,21.45-4.5,32.22,5.75s7.71,18.72,10.25,22,5.12,12.27,6.82,16.27,8.71,17,5.71,21"/><path class="cls-2" d="M242.78,350.51c8.72,0,22.09.05,27.72-5"/></g></svg>