<svg xmlns="http://www.w3.org/2000/svg" viewBox="0 0 500 500"><defs><style>.cls-1{fill:#cbe3e8;}.cls-2{fill:none;stroke:#51a2b3;stroke-linecap:round;stroke-linejoin:round;stroke-width:5px;}</style></defs><g id="Glaciología_e_hidrografía" data-name="Glaciología e hidrografía"><circle class="cls-1" cx="253" cy="253" r="225" transform="translate(-104.8 253) rotate(-45)"/><line class="cls-2" x1="255.42" y1="109.14" x2="255.42" y2="399.16"/><line class="cls-2" x1="129.81" y1="181.69" x2="381.03" y2="326.61"/><line class="cls-2" x1="129.91" y1="326.77" x2="380.94" y2="181.53"/><polygon class="cls-2" points="182.07 254.15 221.09 274.02 218.27 316.95 255 296.08 291.73 317.8 290.9 274.62 327.93 255.34 288.22 235.17 291.73 191.35 255 216.65 218.27 191.35 223.04 234.73 182.07 254.15"/><polyline class="cls-2" points="282.75 170.99 255 190.1 226.84 170.71"/><polyline class="cls-2" points="343.01 237.61 311.48 221.59 314.25 186.97"/><polyline class="cls-2" points="316.74 325.69 316.03 288.65 345.37 273.37"/><polyline class="cls-2" points="223.07 343.28 255 325.13 286.87 343.97"/><polyline class="cls-2" points="165.52 271.42 197.35 287.63 194.85 325.69"/><polyline class="cls-2" points="196.91 186.63 200.67 220.85 165.52 237.5"/><polyline class="cls-2" points="269.79 141.23 255 151.43 239.81 140.96"/><polyline class="cls-2" points="361.8 210.16 345.37 201.81 346.77 184.28"/><polyline class="cls-2" points="352.99 326.77 352.65 309.09 364.07 303.14"/><polyline class="cls-2" points="241.25 375.29 255.01 367.46 269.36 375.95"/><polyline class="cls-2" points="146.94 299.41 162.76 307.46 161.56 325.69"/><polyline class="cls-2" points="166.12 182.81 168.08 200.61 146.94 210.63"/><circle class="cls-2" cx="198.65" cy="152.73" r="8.41"/><circle class="cls-2" cx="317.24" cy="152.73" r="8.41"/><circle class="cls-2" cx="194.44" cy="357.53" r="8.41"/><circle class="cls-2" cx="313.03" cy="357.53" r="8.41"/><circle class="cls-2" cx="136.41" cy="254.5" r="8.41"/><circle class="cls-2" cx="373.59" cy="254.5" r="8.41"/></g></svg>