<svg xmlns="http://www.w3.org/2000/svg" viewBox="0 0 500 500"><defs><style>.cls-1{fill:#cbe3e8;}.cls-2{fill:none;stroke:#51a2b3;stroke-linecap:round;stroke-linejoin:round;stroke-width:5px;}.cls-3{fill:#51a2b3;}</style></defs><g id="Biología_y_ecología" data-name="Biología y ecología"><circle class="cls-1" cx="251" cy="255" r="225" transform="translate(-106.8 252.17) rotate(-45)"/><path class="cls-2" d="M186.91,223.64c-16.46-39.85-3.46-89.24,26.86-89.24,27.74,0,38.13,13.22,38.13,30,3.46-27.4,20-28.36,34.66-29.14,16.46-.86,52,26,31.58,88.38,19.54,29.46,37.68,57.76,36,97.05s-32.06,72.78-102.68,73.44c-37.69.35-100.07-14.52-102.67-69.11S186.91,223.64,186.91,223.64Z"/><path class="cls-2" d="M243.23,177.72c0-3.46,18.2-3.46,18.2,0,0,7.8-9.53,13.86-9.53,13.86S243.23,184.65,243.23,177.72Z"/><circle class="cls-3" cx="214.64" cy="173.39" r="8.23"/><circle class="cls-3" cx="290.02" cy="173.39" r="8.23"/><path class="cls-2" d="M401.8,293c-17.58-10.4-56.3-60.65-55.46-78.85,1.74-37.26-15.59-117-94.44-116.1-84,.92-97.91,84-96.18,119.57.85,17.33-35.52,56.32-53.72,74.51,0,0,12.13,9.54,32.93-3.46-6.94,9.53-6.94,47.65,2.59,71.05,7.33,18,21.78,29.06,38.14,35.89,20.3-6.22,55-3.22,55.88,7.86a4.52,4.52,0,0,1-.72,2.76c9,.36,16.33.18,20.64.15a163.76,163.76,0,0,0,21.09-1.91,4.68,4.68,0,0,1-.05-1.06c.87-10.8,33.8-13.93,54.27-8.33,21.32-6.17,38.93-31.74,43-53.56,4.33-23.39,3.46-34.66,0-53.72C381.87,298.16,391.64,298.16,401.8,293Z"/><path class="cls-2" d="M175.66,395.57c-9,2.78-15.24,7.38-14.31,13.93,1.59,11.13,62.17,8.63,69.47-3.31"/><path class="cls-2" d="M272.55,404.43c2.28,13.37,68.47,16.65,70.13,5,1-6.93-6-11.68-15.91-14.39"/></g></svg>