<svg xmlns="http://www.w3.org/2000/svg" viewBox="0 0 500 500"><defs><style>.cls-1{fill:#cbe3e8;}.cls-2{fill:none;stroke:#51a2b3;stroke-linecap:round;stroke-linejoin:round;stroke-width:5px;}</style></defs><g id="Sismología_y_volcanología" data-name="Sismología y volcanología"><circle class="cls-1" cx="252" cy="252" r="225" transform="translate(-104.38 252) rotate(-45)"/><line class="cls-2" x1="325.78" y1="293.68" x2="398.28" y2="402.24"/><line class="cls-2" x1="113.97" y1="402.24" x2="183.07" y2="286.64"/><path class="cls-2" d="M324.84,292.11c-11.08-2.24,24.86,45.48,6,45.48s-34.55-67.84-59.41-66.3,22.39,90.14-1,90.14c-33.9,0-24.61-68.3-43.63-70.59-13.15-1.58-2.53,42.62-28.36,43.52-17.84.61,14.72-47.73-15.42-47.73,0,0-6.86-.63-3.84-7.84s39.22-57.33,42.94-64.76,13.92.93,25.06.93,21.35-8.35,26.92-4.64,47.35,65,49.2,68.69S333.55,293.87,324.84,292.11Z"/><line class="cls-2" x1="179.21" y1="313.18" x2="183.88" y2="305.14"/><line class="cls-2" x1="151.85" y1="360.21" x2="173.88" y2="322.35"/><circle class="cls-2" cx="337.45" cy="231.13" r="8.22"/><path class="cls-2" d="M235.14,211.25c.93-13.93-8.7-32.3-10.21-28.78-2.78,6.5-22.66,15.35-33.42,5.57-10.21-9.28-6.5-26,10.21-26.92-13-5.57-24.81-18-16.71-35.28s41.3-9.68,45.25,8.62c0,0,9.65-18.11,23.45-16,18.57,2.78,19.49,21.35,19.49,21.35"/><path class="cls-2" d="M264.85,122.13c-.93-7.43,24.14-25.07,39.92-5.57,13.71,16.94,6.5,34.35-19.5,39.92,13,1.85,26.92,14.85,22.28,29.7S273.2,202.89,270.42,189c-13.93,7.42-12.07,24.13-12.07,24.13"/><circle class="cls-2" cx="162.51" cy="223.62" r="8.22"/><circle class="cls-2" cx="208.93" cy="99.22" r="8.22"/><path class="cls-2" d="M176.66,210.32c11.14-10.21,32.49-13,48.27-6.5"/><path class="cls-2" d="M285.27,206.61c16.71-4.65,35.28-.93,42.71,9.28"/><path class="cls-2" d="M223.08,104.49c8.35,1.86,10.21,13.93,10.21,13.93"/></g></svg>