<svg xmlns="http://www.w3.org/2000/svg" viewBox="0 0 500 500"><defs><style>.cls-1{fill:#cbe3e8;}.cls-2{fill:none;stroke:#51a2b3;stroke-linecap:round;stroke-linejoin:round;stroke-width:5px;}</style></defs><g id="Geomorfología"><circle class="cls-1" cx="250" cy="252" r="225" transform="translate(-104.97 250.59) rotate(-45)"/><polyline class="cls-2" points="75.97 357.24 206.34 139.13 352 357.24"/><path class="cls-2" d="M149.5,235.5c36.36,0-22.53,68.83-1,68,31.16-1.2,12.45-49.09,28.31-46.95,22.95,3.1,1.79,55.95,42.69,55.95,28.21,0-17.08-66.91,13-69s39.27,90,62,90-20.63-72-7-72"/><line class="cls-2" x1="126.31" y1="294.77" x2="130.85" y2="286.97"/><line class="cls-2" x1="98.74" y1="342.43" x2="120.14" y2="305.67"/><polyline class="cls-2" points="299.5 276.5 353.69 185.95 429.5 299.5"/><path class="cls-2" d="M318.67,248.94c16.57,0-1.33,25.89,8.48,25.56,14.2-.48,8.36-24.16,15.59-23.31,10.46,1.23,5.35,37.81,24,37.81,12.86,0-13.17-47.46.54-48.28,22-1.33,13.64,35.51,32.67,35.51,10.36,0-9.53-24.36-3.31-24.36"/></g></svg>