<svg id="Turismo_antártico" data-name="Turismo antártico" xmlns="http://www.w3.org/2000/svg" viewBox="0 0 500 500"><defs><style>.cls-1{fill:#cbe3e8;}.cls-2{fill:none;stroke:#51a2b3;stroke-linecap:round;stroke-linejoin:round;stroke-width:5px;}</style></defs><circle class="cls-1" cx="249" cy="255" r="225" transform="translate(-107.38 250.76) rotate(-45)"/><circle class="cls-2" cx="164.4" cy="324.53" r="40.59"/><circle class="cls-2" cx="332.54" cy="324.53" r="40.59"/><circle class="cls-2" cx="165.24" cy="323.7" r="52.3"/><circle class="cls-2" cx="331.7" cy="323.7" r="52.3"/><line class="cls-2" x1="221.1" y1="261.81" x2="216.66" y2="334.38"/><path class="cls-2" d="M113.81,316.27l10-121.39S136,156.33,177,160.51,224.21,197,224.21,197l-.33,3.86"/><path class="cls-2" d="M272.72,199.6l-.32-3.94s17.53-34.11,51-35.46S375.33,199,375.33,199L384,323.7"/><line class="cls-2" x1="279.09" y1="319.88" x2="276.04" y2="268.5"/><path class="cls-2" d="M138.5,170.56c-.83-15.9,5.81-44,40.57-45.43s43,25.66,39.29,58.56"/><path class="cls-2" d="M282.21,181.44s-14.94-52.73,35.32-54,43.86,51,43.86,51"/><path class="cls-2" d="M174.49,219.09c12.55-10,45.19-25.1,73.64-12.55,21.76-10,55.23-11.72,77,11.72-37.66,5.85-47.91,34.91-48.22,50.09-14.55-11.6-47.18-7.42-53.57,0C218.84,242.52,197.92,219.09,174.49,219.09Z"/><path class="cls-2" d="M164.49,294.59a29.6,29.6,0,0,1,21,8.7"/><path class="cls-2" d="M332.8,295.07a29.61,29.61,0,0,1,21,8.7"/></svg>