<svg xmlns="http://www.w3.org/2000/svg" viewBox="0 0 500 500"><defs><style>.cls-1{fill:#cbe3e8;}.cls-2{fill:none;stroke:#51a2b3;stroke-linecap:round;stroke-linejoin:round;stroke-width:5px;}</style></defs><g id="Sitios_de_patrimonio_y_repositorios" data-name="Sitios de patrimonio y repositorios"><circle class="cls-1" cx="251" cy="255" r="225" transform="translate(-106.8 252.17) rotate(-45)"/><path class="cls-2" d="M119.36,381.94c10.55-4.4,42.21-7,52.77-5.28s43,5.28,43,5.28"/><path class="cls-2" d="M253.91,384.58c11.43-1.76,45.77-16.44,60.68-17.59,34.3-2.64,70.41,12,70.41,12"/><path class="cls-2" d="M196.75,400.41c9.67,0,39.11,7,58.25,6.59s28.22-6.59,28.22-6.59"/><line class="cls-2" x1="216.41" y1="402.93" x2="216.41" y2="234.71"/><line class="cls-2" x1="254.23" y1="402.93" x2="254.23" y2="234.71"/><polyline class="cls-2" points="150.14 202.83 150.14 235.08 319.87 235.08 369.44 185.51 318.64 134.71"/><path class="cls-2" d="M319,133.07s15.83,17.58,15.83,39.57c0,13.74-.88,22-13.19,21.11-7.08-.51-9.22-44.64-10.56-38.7-6.15,27.26-21.1,21.11-25.5,0,0,12.31-22,22.87-22.87,3.52,0,8.79-19.34,11.43-37.81,11.43s-26.55-14.95-26.55-14.95-3.35,28.56-20.19,28.56-13.94-28.56-13.94-28.56,3.21,53.65-7.91,53.65c-15.83,0-8.8-55.41-7.92-77.39Z"/><line class="cls-2" x1="197.34" y1="197.21" x2="287.33" y2="197.21"/></g></svg>