<svg xmlns="http://www.w3.org/2000/svg" viewBox="0 0 500 500"><defs><style>.cls-1{fill:#cbe3e8;}.cls-2{fill:none;stroke:#51a2b3;stroke-linecap:round;stroke-linejoin:round;stroke-width:5px;}</style></defs><g id="Paleontología"><circle class="cls-1" cx="249" cy="252" r="225" transform="translate(-105.26 249.88) rotate(-45)"/><path class="cls-2" d="M204.27,246.8c8.87-6.07,18.21-7.49,27.38-7.49,17.09,0,42.76,14.24,42.76,38.66,0,18.78-8.1,37.88-37.88,37.88-17.22,0-27.08-13.41-27.08-22.83,0-7.67,5.3-22.83,23.38-22.83,13.26,0,14.9,9.94,14.9,15.7,0,10.86-9.43,11.59-15,11.59-8.69,0-10.59-17.28,0-17.28,7,0,5.07,10,1.27,10"/><path class="cls-2" d="M163,146.46c18.78-8.74,57.54,93.58,41.24,100.34S148.5,153.22,163,146.46Z"/><path class="cls-2" d="M163,146.46C188,128.22,218.43,123,241.15,123c39.4,0,125.32,34.64,125.32,120.58,0,65.51-50.34,137.39-115.6,138.85C176.58,384.09,150,346.59,150,305.77c0-39.88,20.52-63.71,37.55-72.92"/><path class="cls-2" d="M214.59,125.63C236.34,123.47,239.3,239,220.71,240"/><path class="cls-2" d="M291.42,135.36c20.5,9.46-32,111.67-52.17,104.35"/><path class="cls-2" d="M334.19,164.3c16.89,13.75-62.22,96.46-76.09,84.14"/><path class="cls-2" d="M364.65,224.15c7.3,18.27-89.65,51.51-95.2,35.69"/><path class="cls-2" d="M362.82,276.32c-4.16,18-87.61,17.65-88.39,3"/><path class="cls-2" d="M339.14,328.61c-6.21,12.78-72.7-24.25-66.94-34.9"/><path class="cls-2" d="M302.4,365.11c-10,8.6-51.44-48.82-42.58-55.78"/><path class="cls-2" d="M256.12,382.1c-12.26,3-23.23-64.88-12.69-67"/><path class="cls-2" d="M212.7,378.84c-12.19-2.83,7.49-66.23,17.77-63.37"/><path class="cls-2" d="M176.22,362.27c-10.58-7.93,34.18-59.23,42.89-52.08"/><path class="cls-2" d="M151.37,322.09c-4.49-12.06,56.07-32.53,59.5-22"/><path class="cls-2" d="M153.44,279.6c4.92-13.11,57.94,2,56.19,11.57"/><path class="cls-2" d="M175.27,241.9c6.23-7.89,44.92,30.6,39.26,37.17"/><path class="cls-2" d="M230.73,239.85c2.5,12.66,2.36,30.48-2.47,31"/><path class="cls-2" d="M261.21,251.61c-5,9.7-18.28,22.21-22,19.22"/><path class="cls-2" d="M273.9,280c.26,5.37-26.39,4.58-26.42-.06"/><path class="cls-2" d="M262.13,308.36c-3.07,3.15-20.14-11.9-15.56-16.48"/><path class="cls-2" d="M223.68,313.85c-5.49-5.49,2.75-18.31,9.16-16.48"/><path class="cls-2" d="M212.7,280.9c3.66-3.67,14.65,3.66,12.82,7.32"/><path class="cls-2" d="M233.36,290.5s-4.33-2.1-1-4.54"/><path class="cls-2" d="M180.34,202.57c-1.35-3.17-2.65-6.39-3.87-9.61"/><path class="cls-2" d="M201.77,239.13c-6-5.83-12.85-17.58-19-31"/></g></svg>