<svg xmlns="http://www.w3.org/2000/svg" viewBox="0 0 1036 243"><defs><style>.cls-1{fill:#3c3c3c;}</style></defs><g id="Capa_5" data-name="Capa 5"><path class="cls-1" d="M273.38,43h5.92l25.52,56.4H298l-6.56-14.8H261l-6.64,14.8h-6.48ZM289,79,276.26,50.39,263.46,79Z"/><path class="cls-1" d="M323.46,49.27h-18.8V43.43h44v5.84h-18.8V99.43h-6.4Z"/><path class="cls-1" d="M360.5,43.43h6.32V93.59h31.52v5.84H360.5Z"/><path class="cls-1" d="M430.74,43h5.92l25.52,56.4h-6.8l-6.56-14.8H418.34l-6.64,14.8h-6.48ZM446.34,79,433.62,50.39,420.82,79Z"/><path class="cls-1" d="M468.42,91.27l3.92-4.64c5.84,5.28,11.44,7.92,19.2,7.92,7.52,0,12.48-4,12.48-9.52v-.16c0-5.2-2.8-8.16-14.56-10.64-12.88-2.8-18.8-7-18.8-16.16v-.16c0-8.8,7.76-15.28,18.4-15.28a29.22,29.22,0,0,1,19.68,6.88l-3.68,4.88c-5.2-4.24-10.4-6.08-16.16-6.08-7.28,0-11.92,4-11.92,9v.16c0,5.28,2.88,8.24,15.2,10.88,12.48,2.72,18.24,7.28,18.24,15.84v.16c0,9.6-8,15.84-19.12,15.84C482.42,100.23,475.14,97.27,468.42,91.27Z"/><path class="cls-1" d="M547.3,43.43h19.44c17.6,0,29.76,12.08,29.76,27.84v.16c0,15.76-12.16,28-29.76,28H547.3Zm19.44,50.16c14.16,0,23.2-9.6,23.2-22v-.16c0-12.4-9-22.16-23.2-22.16H553.62V93.59Z"/><path class="cls-1" d="M609.86,43.43h40.48v5.76H616.18V68.31h30.56v5.76H616.18v19.6h34.56v5.76H609.86Z"/><path class="cls-1" d="M687.46,43.43h6.32V93.59H725.3v5.84H687.46Z"/><path class="cls-1" d="M757.7,43h5.92l25.52,56.4h-6.8l-6.56-14.8H745.3l-6.64,14.8h-6.48ZM773.3,79,760.58,50.39,747.78,79Z"/><path class="cls-1" d="M39.75,139h5.92l25.52,56.4h-6.8l-6.56-14.8H27.34l-6.63,14.8H14.22ZM55.35,175,42.62,146.39,29.82,175Z"/><path class="cls-1" d="M82.22,139.43h5.92l35.28,44.88V139.43h6.16v56h-5L88.38,149.51v45.92H82.22Z"/><path class="cls-1" d="M160.22,145.27h-18.8v-5.84h44v5.84h-18.8v50.16h-6.4Z"/><path class="cls-1" d="M210.78,139h5.92l25.52,56.4h-6.8l-6.56-14.8H198.38l-6.64,14.8h-6.48ZM226.38,175l-12.72-28.56L200.86,175Zm-7.2-51.6,6.32,2.88-9.2,7.44h-5.12Z"/><path class="cls-1" d="M253.26,139.43h24.08c6.88,0,12.4,2.08,15.92,5.6a15.47,15.47,0,0,1,4.32,11v.16c0,9.28-6.4,14.72-15.2,16.32l17.2,22.88h-7.76l-16.24-21.76h-16v21.76h-6.32ZM276.78,168c8.4,0,14.4-4.32,14.4-11.52v-.16c0-6.88-5.28-11-14.32-11H259.58V168Z"/><path class="cls-1" d="M325.34,145.27h-18.8v-5.84h44v5.84h-18.8v50.16h-6.4Z"/><path class="cls-1" d="M362.94,139.43h6.32v56h-6.32Z"/><path class="cls-1" d="M385.66,139.43H405.1c17.6,0,29.76,12.08,29.76,27.84v.16c0,15.76-12.16,28-29.76,28H385.66Zm19.44,50.16c14.16,0,23.2-9.6,23.2-22v-.16c0-12.4-9-22.16-23.2-22.16H392v44.32Z"/><path class="cls-1" d="M465.26,139h5.92l25.52,56.4h-6.8l-6.56-14.8H452.86l-6.64,14.8h-6.48ZM480.86,175l-12.72-28.56L455.34,175Z"/><path class="cls-1" d="M552.46,139h5.92l25.52,56.4h-6.8l-6.56-14.8H540.06l-6.64,14.8h-6.48ZM568.06,175l-12.72-28.56L542.54,175Z"/><path class="cls-1" d="M594.94,139.43H619c6.88,0,12.4,2.08,15.92,5.6a15.47,15.47,0,0,1,4.32,11v.16c0,9.28-6.4,14.72-15.2,16.32l17.2,22.88H633.5l-16.24-21.76h-16v21.76h-6.32ZM618.46,168c8.4,0,14.4-4.32,14.4-11.52v-.16c0-6.88-5.28-11-14.32-11H601.26V168Z"/><path class="cls-1" d="M650.3,167.59v-.16c0-15.36,11.28-29,28.08-29,9.44,0,15.28,2.72,20.88,7.44l-4.08,4.8a23.82,23.82,0,0,0-17-6.4c-12.4,0-21.28,10.48-21.28,23v.16c0,13.36,8.56,23.28,22.16,23.28a26.37,26.37,0,0,0,16.16-5.6V171.19h-17v-5.68h23.12v22.32a33.93,33.93,0,0,1-22.48,8.56C661.18,196.39,650.3,183.59,650.3,167.59Z"/><path class="cls-1" d="M715.5,139.43H756v5.76H721.82v19.12h30.56v5.76H721.82v19.6h34.56v5.76H715.5Z"/><path class="cls-1" d="M769.1,139.43H775l35.28,44.88V139.43h6.16v56h-5l-36.16-45.92v45.92H769.1Z"/><path class="cls-1" d="M847.1,145.27H828.3v-5.84h44v5.84H853.5v50.16h-6.4Z"/><path class="cls-1" d="M884.7,139.43H891v56H884.7Z"/><path class="cls-1" d="M907.42,139.43h5.92l35.28,44.88V139.43h6.16v56h-5l-36.16-45.92v45.92h-6.16Z"/><path class="cls-1" d="M991.34,139h5.92l25.52,56.4H1016l-6.56-14.8H978.94l-6.64,14.8h-6.48Zm15.6,35.92-12.72-28.56L981.42,175Z"/></g></svg>